{
  "accessors": [
    {
      "bufferView": 2,
      "componentType": 5126,
      "count": 21800,
      "max": [
        1,
        0.35623499751091003,
        0.83960002660751343
      ],
      "min": [
        -1,
        -0.35623499751091003,
        -0.83960002660751343
      ],
      "type": "VEC3"
    },
    {
      "bufferView": 2,
      "byteOffset": 261600,
      "componentType": 5126,
      "count": 21800,
      "max": [
        1,
        1,
        1
      ],
      "min": [
        -1,
        -1,
        -1
      ],
      "type": "VEC3"
    },
    {
      "bufferView": 3,
      "componentType": 5126,
      "count": 21800,
      "max": [
        1,
        0.9999920129776001,
        1,
        1
      ],
      "min": [
        -1,
        -0.9999920129776001,
        -1,
        -1
      ],
      "type": "VEC4"
    },
    {
      "bufferView": 2,
      "byteOffset": 523200,
      "componentType": 5126,
      "count": 21800,
      "max": [
        1,
        0.94509804248809814,
        1
      ],
      "min": [
        0,
        0,
        0
      ],
      "type": "VEC3"
    },
    {
      "bufferView": 1,
      "componentType": 5126,
      "count": 21800,
      "max": [
        0.9996110200881958,
        0.99913501739501953
      ],
      "min": [
        0.00084449897985905409,
        0.0025748799089342356
      ],
      "type": "VEC2"
    },
    {
      "bufferView": 0,
      "componentType": 5125,
      "count": 90438,
      "max": [
        21799
      ],
      "min": [
        0
      ],
      "type": "SCALAR"
    },
    {
      "bufferView": 2,
      "byteOffset": 784800,
      "componentType": 5126,
      "count": 12852,
      "max": [
        0.081743203103542328,
        0.21358199417591095,
        0.2044530063867569
      ],
      "min": [
        -0.077431701123714447,
        0.044157698750495911,
        -0.0098850904032588005
      ],
      "type": "VEC3"
    },
    {
      "bufferView": 2,
      "byteOffset": 939024,
      "componentType": 5126,
      "count": 12852,
      "max": [
        1,
        1,
        1
      ],
      "min": [
        -1,
        -1,
        -1
      ],
      "type": "VEC3"
    },
    {
      "bufferView": 3,
      "byteOffset": 348800,
      "componentType": 5126,
      "count": 12852,
      "max": [
        1,
        1,
        1,
        1
      ],
      "min": [
        -1,
        -1,
        -1,
        -1
      ],
      "type": "VEC4"
    },
    {
      "bufferView": 2,
      "byteOffset": 1093248,
      "componentType": 5126,
      "count": 12852,
      "max": [
        1,
        1,
        1
      ],
      "min": [
        0,
        0,
        0
      ],
      "type": "VEC3"
    },
    {
      "bufferView": 1,
      "byteOffset": 174400,
      "componentType": 5126,
      "count": 12852,
      "max": [
        1.0002000331878662,
        1
      ],
      "min": [
        0,
        0
      ],
      "type": "VEC2"
    },
    {
      "bufferView": 0,
      "byteOffset": 361752,
      "componentType": 5125,
      "count": 48594,
      "max": [
        12851
      ],
      "min": [
        0
      ],
      "type": "SCALAR"
    }
  ],
  "asset": {
    "generator": "Sketchfab (OSG glTF plugin)",
    "version": "2.0"
  },
  "bufferViews": [
    {
      "buffer": 0,
      "byteLength": 556128,
      "byteOffset": 0,
      "name": "floatBufferViews",
      "target": 34963
    },
    {
      "buffer": 0,
      "byteLength": 277216,
      "byteOffset": 556128,
      "byteStride": 8,
      "name": "floatBufferViews",
      "target": 34962
    },
    {
      "buffer": 0,
      "byteLength": 1247472,
      "byteOffset": 833344,
      "byteStride": 12,
      "name": "floatBufferViews",
      "target": 34962
    },
    {
      "buffer": 0,
      "byteLength": 554432,
      "byteOffset": 2080816,
      "byteStride": 16,
      "name": "floatBufferViews",
      "target": 34962
    }
  ],
  "buffers": [
    {
      "byteLength": 2635248,
      "uri": "scene.bin"
    }
  ],
  "images": [
    {
      "uri": "textures/COCKPIT_baseColor.png"
    },
    {
      "uri": "textures/COCKPIT_metallicRoughness.png"
    },
    {
      "uri": "textures/COCKPIT_normal.png"
    },
    {
      "uri": "textures/Compass_baseColor.jpeg"
    },
    {
      "uri": "textures/Compass_normal.png"
    },
    {
      "uri": "textures/Compass_metallicRoughness.png"
    }
  ],
  "materials": [
    {
      "alphaCutoff": 0.23469696039999999,
      "alphaMode": "MASK",
      "doubleSided": true,
      "name": "COCKPIT",
      "normalTexture": {
        "index": 2,
        "scale": 0.28045455470000002,
        "texCoord": 0
      },
      "pbrMetallicRoughness": {
        "baseColorFactor": [
          1,
          1,
          1,
          1
        ],
        "baseColorTexture": {
          "index": 0,
          "texCoord": 0
        },
        "metallicFactor": 1,
        "metallicRoughnessTexture": {
          "index": 1,
          "texCoord": 0
        },
        "roughnessFactor": 0.86833334259999995
      }
    },
    {
      "doubleSided": true,
      "name": "Compass",
      "normalTexture": {
        "index": 4,
        "scale": 0.2865151608,
        "texCoord": 0
      },
      "occlusionTexture": {
        "index": 5,
        "strength": 1,
        "texCoord": 0
      },
      "pbrMetallicRoughness": {
        "baseColorFactor": [
          0.97136364559999999,
          0.97136364559999999,
          0.97136364559999999,
          1
        ],
        "baseColorTexture": {
          "index": 3,
          "texCoord": 0
        },
        "metallicFactor": 1,
        "metallicRoughnessTexture": {
          "index": 5,
          "texCoord": 0
        },
        "roughnessFactor": 0.76530303960000001
      }
    }
  ],
  "meshes": [
    {
      "name": "defaultMaterial",
      "primitives": [
        {
          "attributes": {
            "COLOR_0": 3,
            "NORMAL": 1,
            "POSITION": 0,
            "TANGENT": 2,
            "TEXCOORD_0": 4
          },
          "indices": 5,
          "material": 1,
          "mode": 4
        }
      ]
    },
    {
      "name": "defaultMaterial",
      "primitives": [
        {
          "attributes": {
            "COLOR_0": 9,
            "NORMAL": 7,
            "POSITION": 6,
            "TANGENT": 8,
            "TEXCOORD_0": 10
          },
          "indices": 11,
          "material": 0,
          "mode": 4
        }
      ]
    }
  ],
  "nodes": [
    {
      "children": [
        1
      ],
      "name": "RootNode (gltf orientation matrix)",
      "rotation": [
        -0.70710678118654746,
        -0,
        -0,
        0.70710678118654757
      ]
    },
    {
      "children": [
        2
      ],
      "name": "RootNode (model correction matrix)"
    },
    {
      "children": [
        3,
        6
      ],
      "matrix": [
        1,
        0,
        0,
        0,
        0,
        -4.3711390063094768e-08,
        0.999999999999999,
        0,
        0,
        -0.999999999999999,
        -4.3711390063094768e-08,
        0,
        0,
        0,
        0,
        1
      ],
      "name": "Collada visual scene group"
    },
    {
      "children": [
        4
      ],
      "name": "FALCO"
    },
    {
      "children": [
        5
      ],
      "name": "Geode"
    },
    {
      "mesh": 0,
      "name": "defaultMaterial"
    },
    {
      "children": [
        7
      ],
      "name": "(UV)Cockpit"
    },
    {
      "children": [
        8
      ],
      "name": "Geode"
    },
    {
      "mesh": 1,
      "name": "defaultMaterial"
    }
  ],
  "samplers": [
    {
      "magFilter": 9729,
      "minFilter": 9987,
      "wrapS": 10497,
      "wrapT": 10497
    }
  ],
  "scene": 0,
  "scenes": [
    {
      "name": "OSG_Scene",
      "nodes": [
        0
      ]
    }
  ],
  "textures": [
    {
      "sampler": 0,
      "source": 0
    },
    {
      "sampler": 0,
      "source": 1
    },
    {
      "sampler": 0,
      "source": 2
    },
    {
      "sampler": 0,
      "source": 3
    },
    {
      "sampler": 0,
      "source": 4
    },
    {
      "sampler": 0,
      "source": 5
    }
  ]
}

